<svg width="95" height="94" viewBox="0 0 95 94" fill="none" xmlns="http://www.w3.org/2000/svg">
<path d="M35.6648 17.5383C35.8927 18.067 36.2601 18.4171 36.7669 18.5886C37.2738 18.7602 37.8791 18.7339 38.5829 18.5098C39.0611 18.3575 39.4434 18.1613 39.7296 17.9211C40.0173 17.6854 40.2118 17.4222 40.313 17.1316C40.4098 16.8424 40.4107 16.5489 40.3159 16.2511C40.2459 16.0001 40.1251 15.8001 39.9534 15.651C39.7772 15.5034 39.5661 15.3942 39.3199 15.3235C39.0752 15.2573 38.804 15.217 38.5062 15.2025C38.2099 15.1925 37.8998 15.2018 37.5759 15.2303L36.2359 15.3291C35.5882 15.3862 34.9759 15.3824 34.3987 15.3177C33.8216 15.2531 33.2956 15.1149 32.8208 14.9034C32.346 14.6918 31.9359 14.395 31.5907 14.013C31.2409 13.6325 30.9718 13.1541 30.7835 12.5781C30.5179 11.7285 30.5003 10.9241 30.7307 10.165C30.9579 9.41189 31.4185 8.73602 32.1124 8.13743C32.8033 7.54478 33.7126 7.06889 34.8405 6.70975C35.9594 6.35349 36.9885 6.21464 37.9279 6.2932C38.8627 6.37319 39.6695 6.67533 40.3482 7.1996C41.0239 7.72982 41.5317 8.48988 41.8718 9.47977L39.0362 10.3826C38.8567 9.928 38.6 9.58238 38.2663 9.34577C37.9295 9.11512 37.5374 8.98405 37.0901 8.95255C36.6397 8.92701 36.1619 8.99469 35.6566 9.15558C35.1603 9.3136 34.7524 9.52298 34.433 9.78371C34.109 10.0459 33.8864 10.3379 33.7653 10.6597C33.6441 10.9815 33.6367 11.3093 33.743 11.6432C33.8421 11.9545 34.0179 12.1867 34.2704 12.3399C34.5184 12.4945 34.8421 12.5902 35.2414 12.627C35.6362 12.6653 36.1056 12.6649 36.6497 12.6258L38.2796 12.5242C39.5386 12.4364 40.6027 12.587 41.472 12.9761C42.3412 13.3652 42.9366 14.0725 43.2582 15.0981C43.5299 15.9358 43.54 16.7401 43.2886 17.5109C43.0326 18.2831 42.5636 18.9716 41.8816 19.5763C41.1996 20.181 40.3532 20.6443 39.3426 20.9661C38.314 21.2936 37.3601 21.4036 36.4811 21.2959C35.5975 21.1896 34.8416 20.8911 34.2133 20.4005C33.5851 19.9099 33.1327 19.2539 32.8563 18.4325L35.6648 17.5383Z" fill="black"/>
<path d="M32.1955 22.6772L29.6986 25.5319L19.7054 22.113L19.5932 22.2413L24.312 31.6904L21.8151 34.5451L10.8667 24.969L12.8305 22.7237L19.9566 28.9566L20.0361 28.8657L15.4417 19.8462L16.779 18.3173L26.3565 21.6935L26.436 21.6026L19.2832 15.3463L21.2471 13.1011L32.1955 22.6772Z" fill="black"/>
<path d="M15.9707 43.4418C16.5447 43.4855 17.0254 43.3227 17.4127 42.9536C17.8 42.5844 18.0579 42.0361 18.1863 41.3087C18.2736 40.8145 18.2773 40.3848 18.1975 40.0198C18.1224 39.6555 17.9796 39.3611 17.7693 39.1364C17.5581 38.9164 17.2986 38.7793 16.9909 38.7249C16.7361 38.6703 16.5028 38.6844 16.2911 38.7673C16.0785 38.8547 15.8837 38.991 15.7068 39.1762C15.5345 39.3621 15.3728 39.5836 15.2217 39.8406C15.0752 40.0984 14.9394 40.3773 14.8143 40.6774L14.2794 41.91C14.0292 42.5101 13.7414 43.0507 13.4161 43.5318C13.0908 44.0128 12.7242 44.4145 12.3163 44.7367C11.9084 45.059 11.4552 45.2843 10.9565 45.4126C10.457 45.5456 9.90846 45.5618 9.3108 45.4611C8.43503 45.3016 7.71451 44.9437 7.14926 44.3871C6.58784 43.836 6.2032 43.1142 5.99536 42.2217C5.79135 41.3347 5.79224 40.3083 5.99803 39.1426C6.20218 37.9862 6.55716 37.0104 7.06299 36.215C7.568 35.4243 8.21027 34.8501 8.98981 34.4925C9.77318 34.1404 10.6822 34.0436 11.7167 34.2022L11.1994 37.1327C10.7134 37.0806 10.2881 37.1474 9.92355 37.333C9.56285 37.5242 9.26469 37.8105 9.02906 38.192C8.79726 38.579 8.63527 39.0336 8.54307 39.5558C8.45252 40.0687 8.44852 40.5272 8.53105 40.9312C8.61276 41.3399 8.76798 41.6726 8.99671 41.9294C9.22545 42.1861 9.51234 42.345 9.85738 42.4059C10.1791 42.4627 10.4664 42.4148 10.7193 42.2623C10.9714 42.1145 11.2065 41.8723 11.4246 41.5358C11.6418 41.2039 11.8595 40.788 12.0776 40.288L12.7446 38.7975C13.2515 37.6417 13.8791 36.7692 14.6274 36.1801C15.3757 35.591 16.2787 35.3922 17.3363 35.5837C18.2044 35.7322 18.9213 36.0967 19.4871 36.6774C20.0521 37.2628 20.444 37.9979 20.6628 38.8827C20.8817 39.7676 20.8989 40.7322 20.7145 41.7767C20.5268 42.8398 20.1811 43.7356 19.6775 44.4641C19.1731 45.1972 18.5577 45.728 17.8313 46.0565C17.105 46.3851 16.314 46.481 15.4582 46.3444L15.9707 43.4418Z" fill="black"/>
<path d="M20.3446 55.9223L22.5548 59.0043L16.9476 67.9547L17.0469 68.0932L27.323 65.6531L29.5332 68.7351L17.713 77.2118L15.9747 74.7878L23.6681 69.2705L23.5978 69.1724L13.7683 71.5893L12.5846 69.9387L18.0555 61.3831L17.9852 61.285L10.2628 66.823L8.52445 64.399L20.3446 55.9223Z" fill="black"/>
<path d="M27.8425 83.9104L24.7972 82.6511L34.9958 71.1284L38.6581 72.6429L37.7333 88.0005L34.688 86.7412L35.6093 74.9789L35.5043 74.9355L27.8425 83.9104ZM29.837 78.5483L37.0303 81.5229L36.113 83.7413L28.9197 80.7667L29.837 78.5483Z" fill="black"/>
<path d="M45.7438 88.8685L44.2745 74.3974L49.9838 73.8177C51.0766 73.7068 52.0292 73.8076 52.8414 74.1201C53.6579 74.4274 54.3048 74.9162 54.7822 75.5864C55.2637 76.2514 55.5531 77.062 55.6502 78.0182C55.7477 78.9792 55.6244 79.827 55.2802 80.5615C54.9355 81.2914 54.3884 81.8799 53.6391 82.3272C52.8944 82.7741 51.9662 83.0539 50.8545 83.1668L47.0319 83.5549L46.7822 81.096L50.1102 80.7581C50.6944 80.6988 51.1714 80.5694 51.5414 80.37C51.9114 80.1707 52.1744 79.9012 52.3303 79.5618C52.4909 79.2218 52.5471 78.814 52.4987 78.3382C52.45 77.8577 52.3123 77.4624 52.0856 77.1523C51.8637 76.8417 51.5487 76.6214 51.1405 76.4915C50.7365 76.3565 50.2401 76.3188 49.6513 76.3786L47.588 76.5881L48.8034 88.5578L45.7438 88.8685ZM52.8901 81.4895L57.1553 87.7098L53.7778 88.0527L49.5903 81.8246L52.8901 81.4895Z" fill="black"/>
<path d="M65.376 84.788L57.3823 72.636L59.9515 70.946L63.4761 76.304L63.6363 76.1986L64.4848 67.9639L67.5643 65.9382L66.634 74.3457L75.6114 78.0551L72.5378 80.0769L65.9226 77.2705L65.6736 79.6446L67.9452 83.098L65.376 84.788Z" fill="black"/>
<path d="M80.8229 72.0831L68.207 64.8438L73.085 56.3428L75.2842 57.6047L71.9367 63.4384L74.9428 65.1634L78.0393 59.7671L80.2385 61.029L77.142 66.4253L80.1543 68.1538L83.5159 62.2955L85.7151 63.5574L80.8229 72.0831Z" fill="black"/>
<path d="M76.5799 54.6266L74.0479 54.4924L74.68 42.5631L77.212 42.6973L76.9763 47.1442L88.9695 47.7797L88.8086 50.8152L76.8155 50.1797L76.5799 54.6266Z" fill="black"/>
<path d="M72.5529 36.7851L86.3298 32.1196L87.3162 35.0324L73.5393 39.6979L72.5529 36.7851Z" fill="black"/>
<path d="M63.7919 24.4124L74.7403 14.8363L76.4891 16.8356L73.7644 27.626L73.8345 27.7062L80.7254 21.679L82.7501 23.9938L71.8017 33.57L70.0248 31.5385L72.7769 20.7902L72.6927 20.694L65.8072 26.7165L63.7919 24.4124Z" fill="black"/>
<path d="M54.9257 15.6924C54.9065 16.0515 54.9385 16.3858 55.0217 16.6952C55.1033 17.0092 55.2369 17.296 55.4226 17.5557C55.6021 17.8184 55.8322 18.051 56.1128 18.2534C56.389 18.4544 56.715 18.6199 57.0908 18.7501C57.7932 18.9935 58.471 19.033 59.1243 18.8685C59.7732 18.7025 60.3607 18.3373 60.887 17.773C61.4117 17.2132 61.8399 16.4546 62.1717 15.4971C62.5034 14.5397 62.6401 13.6751 62.5819 12.9033C62.5236 12.1314 62.2895 11.4765 61.8796 10.9386C61.4681 10.4052 60.9 10.0129 60.1752 9.76176C59.5176 9.53388 58.9158 9.45565 58.3699 9.52707C57.818 9.60141 57.3446 9.8107 56.9497 10.1549C56.5503 10.4976 56.2491 10.962 56.046 11.5481L55.4857 11.2562L59.029 12.484L58.271 14.6717L52.5198 12.6789L53.1197 10.9475C53.5383 9.73955 54.1529 8.78997 54.9637 8.09877C55.7729 7.41203 56.7063 6.98881 57.7638 6.82909C58.8198 6.67385 59.925 6.79621 61.0792 7.19617C62.3677 7.64263 63.4012 8.31893 64.1796 9.22506C64.9565 10.1357 65.4357 11.2112 65.6172 12.4517C65.7927 13.6951 65.6293 15.0416 65.127 16.4911C64.741 17.6051 64.2358 18.5425 63.6114 19.3033C62.981 20.067 62.2673 20.6516 61.4704 21.0569C60.6735 21.4623 59.8307 21.6889 58.9422 21.7368C58.0537 21.7848 57.1553 21.6514 56.2471 21.3367C55.4687 21.0669 54.7835 20.7017 54.1914 20.241C53.5979 19.7848 53.1129 19.261 52.7366 18.6695C52.3557 18.0766 52.0982 17.4386 51.964 16.7557C51.8283 16.0773 51.8313 15.3818 51.9729 14.6692L54.9257 15.6924Z" fill="black"/>
<circle cx="47" cy="47" r="6" fill="#04151F"/>
</svg>
