<svg width="112" height="128" viewBox="0 0 112 128" fill="none" xmlns="http://www.w3.org/2000/svg">
<g filter="url(#filter0_f_673_4300)">
<rect x="24" y="40" width="64" height="64" fill="#06D6A0"/>
</g>
<rect x="8" width="96" height="96" rx="20" fill="#06D6A0"/>
<path d="M77 46.8334C77.008 49.9131 76.2885 52.9511 74.9 55.7001C73.2537 58.9941 70.7228 61.7648 67.5907 63.7017C64.4587 65.6386 60.8492 66.6653 57.1667 66.6667C54.087 66.6748 51.0489 65.9552 48.3 64.5667L35 69.0001L39.4333 55.7001C38.0448 52.9511 37.3253 49.9131 37.3333 46.8334C37.3348 43.1508 38.3614 39.5414 40.2983 36.4093C42.2353 33.2773 45.0059 30.7464 48.3 29.1001C51.0489 27.7116 54.087 26.992 57.1667 27.0001H58.3333C63.1968 27.2684 67.7904 29.3212 71.2347 32.7654C74.6789 36.2096 76.7317 40.8033 77 45.6667V46.8334Z" stroke="white" stroke-width="4" stroke-linecap="round" stroke-linejoin="round"/>
<defs>
<filter id="filter0_f_673_4300" x="0" y="16" width="112" height="112" filterUnits="userSpaceOnUse" color-interpolation-filters="sRGB">
<feFlood flood-opacity="0" result="BackgroundImageFix"/>
<feBlend mode="normal" in="SourceGraphic" in2="BackgroundImageFix" result="shape"/>
<feGaussianBlur stdDeviation="12" result="effect1_foregroundBlur_673_4300"/>
</filter>
</defs>
</svg>
