<svg width="91" height="151" viewBox="0 0 91 151" fill="none" xmlns="http://www.w3.org/2000/svg">
<path d="M85.1778 11.6443C81.9697 11.6443 79.3557 9.0303 79.3557 5.82217C79.3557 2.61404 81.9697 0 85.1778 0C88.386 0 91 2.61404 91 5.82217C91 9.0501 88.386 11.6443 85.1778 11.6443ZM91 40.6561C91 37.448 88.386 34.834 85.1778 34.834C81.9697 34.834 79.3557 37.448 79.3557 40.6561C79.3557 43.8643 81.9697 46.4783 85.1778 46.4783C88.386 46.4783 91 43.8841 91 40.6561ZM91 75.4901C91 72.282 88.386 69.6679 85.1778 69.6679C81.9697 69.6679 79.3557 72.282 79.3557 75.4901C79.3557 78.6982 81.9697 81.3123 85.1778 81.3123C88.386 81.3321 91 78.718 91 75.4901ZM91 110.344C91 107.136 88.386 104.522 85.1778 104.522C81.9697 104.522 79.3557 107.136 79.3557 110.344C79.3557 113.552 81.9697 116.166 85.1778 116.166C88.386 116.166 91 113.552 91 110.344ZM91 145.178C91 141.97 88.386 139.356 85.1778 139.356C81.9697 139.356 79.3557 141.97 79.3557 145.178C79.3557 148.386 81.9697 151 85.1778 151C88.386 151 91 148.386 91 145.178ZM56.166 5.82217C56.166 2.61404 53.5519 0 50.3438 0C47.1357 0 44.5216 2.61404 44.5216 5.82217C44.5216 9.0303 47.1357 11.6443 50.3438 11.6443C53.5519 11.6443 56.166 9.0501 56.166 5.82217ZM56.166 40.6561C56.166 37.448 53.5519 34.834 50.3438 34.834C47.1357 34.834 44.5216 37.448 44.5216 40.6561C44.5216 43.8643 47.1357 46.4783 50.3438 46.4783C53.5519 46.4783 56.166 43.8841 56.166 40.6561ZM56.166 75.4901C56.166 72.282 53.5519 69.6679 50.3438 69.6679C47.1357 69.6679 44.5216 72.282 44.5216 75.4901C44.5216 78.6982 47.1357 81.3123 50.3438 81.3123C53.5519 81.3321 56.166 78.718 56.166 75.4901ZM56.166 110.344C56.166 107.136 53.5519 104.522 50.3438 104.522C47.1357 104.522 44.5216 107.136 44.5216 110.344C44.5216 113.552 47.1357 116.166 50.3438 116.166C53.5519 116.166 56.166 113.552 56.166 110.344ZM56.166 145.178C56.166 141.97 53.5519 139.356 50.3438 139.356C47.1357 139.356 44.5216 141.97 44.5216 145.178C44.5216 148.386 47.1357 151 50.3438 151C53.5519 151 56.166 148.386 56.166 145.178ZM21.3123 5.82217C21.3123 2.61404 18.6982 0 15.4901 0C12.282 0 9.66792 2.61404 9.66792 5.82217C9.66792 9.0303 12.282 11.6443 15.4901 11.6443C18.718 11.6443 21.3123 9.0501 21.3123 5.82217ZM21.3123 40.6561C21.3123 37.448 18.6982 34.834 15.4901 34.834C12.282 34.834 9.66792 37.448 9.66792 40.6561C9.66792 43.8643 12.282 46.4783 15.4901 46.4783C18.718 46.4783 21.3123 43.8841 21.3123 40.6561ZM21.3123 75.4901C21.3123 72.282 18.6982 69.6679 15.4901 69.6679C12.282 69.6679 9.66792 72.282 9.66792 75.4901C9.66792 78.6982 12.282 81.3123 15.4901 81.3123C18.718 81.3321 21.3123 78.718 21.3123 75.4901ZM21.3123 110.344C21.3123 107.136 18.6982 104.522 15.4901 104.522C12.282 104.522 9.66792 107.136 9.66792 110.344C9.66792 113.552 12.282 116.166 15.4901 116.166C18.718 116.166 21.3123 113.552 21.3123 110.344ZM21.3123 145.178C21.3123 141.97 18.6982 139.356 15.4901 139.356C12.282 139.356 9.66792 141.97 9.66792 145.178C9.66792 148.386 12.282 151 15.4901 151C18.718 151 21.3123 148.386 21.3123 145.178ZM-13.5218 5.82217C-13.5218 2.61404 -16.1358 0 -19.3439 0C-22.5521 0 -25.166 2.61404 -25.166 5.82217C-25.166 9.0303 -22.5521 11.6443 -19.3439 11.6443C-16.116 11.6443 -13.5218 9.0501 -13.5218 5.82217ZM-13.5218 40.6561C-13.5218 37.448 -16.1358 34.834 -19.3439 34.834C-22.5521 34.834 -25.166 37.448 -25.166 40.6561C-25.166 43.8643 -22.5521 46.4783 -19.3439 46.4783C-16.116 46.4783 -13.5218 43.8841 -13.5218 40.6561ZM-13.5218 75.4901C-13.5218 72.282 -16.1358 69.6679 -19.3439 69.6679C-22.5521 69.6679 -25.166 72.282 -25.166 75.4901C-25.166 78.6982 -22.5521 81.3123 -19.3439 81.3123C-16.116 81.3321 -13.5218 78.718 -13.5218 75.4901ZM-13.5218 110.344C-13.5218 107.136 -16.1358 104.522 -19.3439 104.522C-22.5521 104.522 -25.166 107.136 -25.166 110.344C-25.166 113.552 -22.5521 116.166 -19.3439 116.166C-16.116 116.166 -13.5218 113.552 -13.5218 110.344ZM-13.5218 145.178C-13.5218 141.97 -16.1358 139.356 -19.3439 139.356C-22.5521 139.356 -25.166 141.97 -25.166 145.178C-25.166 148.386 -22.5521 151 -19.3439 151C-16.116 151 -13.5218 148.386 -13.5218 145.178ZM-48.3557 5.82217C-48.3557 2.61404 -50.9697 0 -54.1778 0C-57.386 0 -60 2.61404 -60 5.82217C-60 9.0303 -57.386 11.6443 -54.1778 11.6443C-50.9697 11.6443 -48.3557 9.0501 -48.3557 5.82217ZM-48.3557 40.6561C-48.3557 37.448 -50.9697 34.834 -54.1778 34.834C-57.386 34.834 -60 37.448 -60 40.6561C-60 43.8643 -57.386 46.4783 -54.1778 46.4783C-50.9697 46.4783 -48.3557 43.8841 -48.3557 40.6561ZM-48.3557 75.4901C-48.3557 72.282 -50.9697 69.6679 -54.1778 69.6679C-57.386 69.6679 -60 72.282 -60 75.4901C-60 78.6982 -57.386 81.3123 -54.1778 81.3123C-50.9697 81.3123 -48.3557 78.718 -48.3557 75.4901ZM-48.3557 110.344C-48.3557 107.136 -50.9697 104.522 -54.1778 104.522C-57.386 104.522 -60 107.136 -60 110.344C-60 113.552 -57.386 116.166 -54.1778 116.166C-50.9697 116.166 -48.3557 113.552 -48.3557 110.344ZM-48.3557 145.178C-48.3557 141.97 -50.9697 139.356 -54.1778 139.356C-57.386 139.356 -60 141.97 -60 145.178C-60 148.386 -57.386 151 -54.1778 151C-50.9697 151 -48.3557 148.386 -48.3557 145.178Z" fill="#451257"/>
</svg>
